<svg id="Capa_1" enable-background="new 0 0 512 512" height="512" viewBox="0 0 512 512" width="512" xmlns="http://www.w3.org/2000/svg"><g><g><path d="m458.64 157.07h-405.28v80c0 5.523 4.477 10 10 10h385.28c5.523 0 10-4.477 10-10z" fill="#685e69"/><path d="m458.64 237.07v-80h-202.64v46.93l119.448 43.07h73.193c5.522 0 9.999-4.477 9.999-10z" fill="#564e57"/><path d="m53.36 157.07v80c0 1.394.286 2.719.801 3.924 1.526 3.572 5.069 6.076 9.199 6.076h73.193l119.447-43.07v-46.93z" fill="#564e57"/><path d="m217.721 154.414h76.558v350.086h-76.558z" fill="#e7efff"/><path d="m217.721 217.803 38.279-13.803 38.279 13.803v-63.389h-76.558z" fill="#d3dbfe"/><path d="m256 174-194.608 70.171c-6.517 2.35-13.392-2.479-13.392-9.407v-149.227c0-6.322 3.964-11.966 9.912-14.111l198.088-71.426 15 86.191z" fill="#70daff"/><path d="m226 10.817v141.158c0 4.215-2.643 7.977-6.608 9.407l-171.392 61.801v11.581c0 6.928 6.875 11.757 13.392 9.407l194.608-70.171v-174z" fill="#28c3ff"/><path d="m450.608 244.171-194.608-70.171v-174l198.088 71.426c5.948 2.145 9.912 7.788 9.912 14.111v149.227c0 6.928-6.875 11.757-13.392 9.407z" fill="#fede40"/><path d="m92.626 101.43 114-41.105c4.562-1.645 9.374 1.735 9.374 6.585v74.076c0 2.95-1.85 5.584-4.626 6.585l-114 41.105c-4.562 1.645-9.374-1.736-9.374-6.585v-74.076c0-2.951 1.85-5.584 4.626-6.585z" fill="#fff"/><g><path d="m119.989 144.065c-3.072 0-5.954-1.901-7.056-4.958-1.405-3.896.615-8.194 4.511-9.6l62.763-22.631c3.897-1.403 8.195.615 9.599 4.512 1.405 3.896-.615 8.194-4.511 9.6l-62.763 22.631c-.839.303-1.699.446-2.543.446z" fill="#70daff"/></g><path d="m296 66.909v74.076c0 2.95 1.85 5.584 4.626 6.585l114 41.105c4.562 1.645 9.374-1.735 9.374-6.585v-74.076c0-2.951-1.85-5.584-4.626-6.585l-114-41.105c-4.562-1.645-9.374 1.736-9.374 6.585z" fill="#fff"/><g><path d="m392.011 144.065c-.844 0-1.703-.144-2.543-.446l-63.761-22.99c-3.896-1.405-5.917-5.703-4.511-9.6 1.405-3.896 5.702-5.915 9.599-4.512l63.761 22.99c3.896 1.405 5.917 5.703 4.511 9.6-1.103 3.057-3.984 4.958-7.056 4.958z" fill="#fede40"/></g><path d="m454.088 71.426-20.088-7.243v140.581c0 6.928-6.875 11.757-13.392 9.407l-164.608-59.354v19.183l194.608 70.171c6.517 2.35 13.392-2.479 13.392-9.407v-149.227c0-6.323-3.964-11.967-9.912-14.111z" fill="#ffc838"/><path d="" fill="#564e57"/></g><g><path d="m386.293 512h-260.586c-4.142 0-7.5-3.357-7.5-7.5s3.358-7.5 7.5-7.5h260.586c4.142 0 7.5 3.357 7.5 7.5s-3.358 7.5-7.5 7.5z" fill="#564e57"/></g></g></svg>